<mxfile host="app.diagrams.net" modified="2023-04-05T06:29:49.673Z" agent="Mozilla/5.0 (X11; Linux x86_64; rv:109.0) Gecko/20100101 Firefox/111.0" etag="FrXkfuGvnXTLWvCHSbSW" version="21.1.4" type="device">
  <diagram name="Page-1" id="zIbT7uibWnixDBG2sErE">
    <mxGraphModel dx="674" dy="773" grid="1" gridSize="10" guides="1" tooltips="1" connect="1" arrows="1" fold="1" page="1" pageScale="1" pageWidth="850" pageHeight="1100" math="0" shadow="0">
      <root>
        <mxCell id="0" />
        <mxCell id="1" parent="0" />
        <mxCell id="sxstOB8nsY2O3Y1OPMSL-6" value="" style="edgeStyle=orthogonalEdgeStyle;rounded=0;orthogonalLoop=1;jettySize=auto;html=1;" edge="1" parent="1" source="sxstOB8nsY2O3Y1OPMSL-1" target="sxstOB8nsY2O3Y1OPMSL-2">
          <mxGeometry relative="1" as="geometry" />
        </mxCell>
        <mxCell id="sxstOB8nsY2O3Y1OPMSL-1" value="Start" style="rounded=1;whiteSpace=wrap;html=1;arcSize=50;" vertex="1" parent="1">
          <mxGeometry x="388" y="40" width="75" height="40" as="geometry" />
        </mxCell>
        <mxCell id="sxstOB8nsY2O3Y1OPMSL-7" value="" style="edgeStyle=orthogonalEdgeStyle;rounded=0;orthogonalLoop=1;jettySize=auto;html=1;" edge="1" parent="1" source="sxstOB8nsY2O3Y1OPMSL-2" target="sxstOB8nsY2O3Y1OPMSL-3">
          <mxGeometry relative="1" as="geometry" />
        </mxCell>
        <mxCell id="sxstOB8nsY2O3Y1OPMSL-2" value="kecepatan&lt;br&gt;waktu" style="shape=parallelogram;perimeter=parallelogramPerimeter;whiteSpace=wrap;html=1;fixedSize=1;" vertex="1" parent="1">
          <mxGeometry x="369.5" y="120" width="112" height="50" as="geometry" />
        </mxCell>
        <mxCell id="sxstOB8nsY2O3Y1OPMSL-8" value="" style="edgeStyle=orthogonalEdgeStyle;rounded=0;orthogonalLoop=1;jettySize=auto;html=1;" edge="1" parent="1" source="sxstOB8nsY2O3Y1OPMSL-3" target="sxstOB8nsY2O3Y1OPMSL-4">
          <mxGeometry relative="1" as="geometry" />
        </mxCell>
        <mxCell id="sxstOB8nsY2O3Y1OPMSL-3" value="jarak = kecepatan * waktu" style="rounded=0;whiteSpace=wrap;html=1;" vertex="1" parent="1">
          <mxGeometry x="353" y="210" width="145" height="60" as="geometry" />
        </mxCell>
        <mxCell id="sxstOB8nsY2O3Y1OPMSL-9" value="" style="edgeStyle=orthogonalEdgeStyle;rounded=0;orthogonalLoop=1;jettySize=auto;html=1;" edge="1" parent="1" source="sxstOB8nsY2O3Y1OPMSL-4" target="sxstOB8nsY2O3Y1OPMSL-5">
          <mxGeometry relative="1" as="geometry" />
        </mxCell>
        <mxCell id="sxstOB8nsY2O3Y1OPMSL-4" value="jarak" style="shape=parallelogram;perimeter=parallelogramPerimeter;whiteSpace=wrap;html=1;fixedSize=1;" vertex="1" parent="1">
          <mxGeometry x="373" y="310" width="105" height="50" as="geometry" />
        </mxCell>
        <mxCell id="sxstOB8nsY2O3Y1OPMSL-5" value="End" style="rounded=1;whiteSpace=wrap;html=1;arcSize=50;" vertex="1" parent="1">
          <mxGeometry x="388" y="400" width="75" height="40" as="geometry" />
        </mxCell>
      </root>
    </mxGraphModel>
  </diagram>
</mxfile>
